<?xml version="1.0" ?><svg baseProfile="basic" id="Layer_1" version="1.1" viewBox="0 0 400 240" xml:space="preserve" xmlns="http://www.w3.org/2000/svg" xmlns:xlink="http://www.w3.org/1999/xlink"><g><path d="M47.8,34.5c-2.7,2.1-7.8,3.7-11.7,4.5c-0.5,0-0.6-1.5-2-2.2c-1.3-0.7-3.4-0.8-4.9-0.3l-2.4-0.4l0.8,1.2   c-0.8,0.8-0.6,1.8,0.7,2.4c1.4,0.7,4.4,0.8,4.3,1c-1.6,1.9-4.8,4.5-8.9,5.8C19.2,48.1,11.2,49,11.2,49s7.9,3.9,18.8,1.6   c5.8-1.3,9.5-3.2,11.1-4.2c1.6,0.2,3.1,0.2,4.3-0.1l3,4.2l7.3-3.7L47,45.5c0.7-0.6,0.8-1.4,0.3-2.3c2-0.8,6-2.6,8.5-5.5   c4.7-5.5-3.1-9.4-3.1-9.4S50.9,32.3,47.8,34.5z" fill="#2D3134"/><path d="M177.3,23.3c-2.7,2.1-7.8,3.7-11.7,4.5c-0.5,0-0.6-1.5-2-2.2c-1.3-0.7-3.4-0.8-4.9-0.3l-2.4-0.4l0.8,1.2   c-0.8,0.8-0.6,1.8,0.7,2.4c1.4,0.7,4.4,0.8,4.3,1c-1.6,1.9-4.8,4.5-8.9,5.8c-4.6,1.5-12.6,2.4-12.6,2.4s7.9,3.9,18.8,1.6   c5.8-1.3,9.5-3.2,11.1-4.2c1.6,0.2,3.1,0.2,4.3-0.1l3,4.2l7.3-3.7l-8.6-1.3c0.7-0.6,0.8-1.4,0.3-2.3c2-0.8,6-2.6,8.5-5.5   c4.7-5.5-3.1-9.4-3.1-9.4S180.4,21,177.3,23.3z" fill="#2D3134"/><path d="M44.7,96C42,98,36.8,99.7,33,100.4c-0.5,0-0.6-1.5-2-2.2c-1.3-0.7-3.4-0.8-4.9-0.3l-2.4-0.4l0.8,1.2   c-0.8,0.8-0.6,1.8,0.7,2.4c1.4,0.7,4.4,0.8,4.3,1c-1.6,1.9-4.8,4.5-8.9,5.8C16,109.5,8,110.4,8,110.4s7.9,3.9,18.8,1.6   c5.8-1.3,9.5-3.2,11.1-4.2c1.6,0.2,3.1,0.2,4.3-0.1l3,4.2l7.3-3.7l-8.6-1.3c0.7-0.6,0.8-1.4,0.3-2.3c2-0.8,6-2.6,8.5-5.5   c4.7-5.5-3.1-9.4-3.1-9.4S47.7,93.7,44.7,96z" fill="#2D3134"/><path d="M139.5,75.9c-2.7,2.1-7.8,3.7-11.7,4.5c-0.5,0-0.6-1.5-2-2.2c-1.3-0.7-3.4-0.8-4.9-0.3l-2.4-0.4l0.8,1.2   c-0.8,0.8-0.6,1.8,0.7,2.4c1.4,0.7,4.4,0.8,4.3,1c-1.6,1.9-4.8,4.5-8.9,5.8c-4.6,1.5-12.6,2.4-12.6,2.4s7.9,3.9,18.8,1.6   c5.8-1.3,9.5-3.2,11.1-4.2c1.6,0.2,3.1,0.2,4.3-0.1l3,4.2l7.3-3.7l-8.6-1.3c0.7-0.6,0.8-1.4,0.3-2.3c2-0.8,6-2.6,8.5-5.5   c4.7-5.5-3.1-9.4-3.1-9.4S142.5,73.6,139.5,75.9z" fill="#2D3134"/><path d="M102.3,58.4c-2.7,2.1-7.8,3.7-11.7,4.5c-0.5,0-0.6-1.5-2-2.2c-1.3-0.7-3.4-0.8-4.9-0.3L81.3,60l0.8,1.2   c-0.8,0.8-0.6,1.8,0.7,2.4c1.4,0.7,4.4,0.8,4.3,1c-1.6,1.9-4.8,4.5-8.9,5.8c-4.6,1.5-12.6,2.4-12.6,2.4s7.9,3.9,18.8,1.6   c5.8-1.3,9.5-3.2,11.1-4.2c1.6,0.2,3.1,0.2,4.3-0.1l3,4.2l7.3-3.7l-8.6-1.3c0.7-0.6,0.8-1.4,0.3-2.3c2-0.8,6-2.6,8.5-5.5   c4.7-5.5-3.1-9.4-3.1-9.4S105.3,56.1,102.3,58.4z" fill="#2D3134"/><path d="M116.3,24.7c-2.7,2.1-7.8,3.7-11.7,4.5c-0.5,0-0.6-1.5-2-2.2c-1.3-0.7-3.4-0.8-4.9-0.3l-2.4-0.4l0.8,1.2   c-0.8,0.8-0.6,1.8,0.7,2.4c1.4,0.7,4.4,0.8,4.3,1c-1.6,1.9-4.8,4.5-8.9,5.8c-4.6,1.5-12.6,2.4-12.6,2.4s7.9,3.9,18.8,1.6   c5.8-1.3,9.5-3.2,11.1-4.2c1.6,0.2,3.1,0.2,4.3-0.1l3,4.2l7.3-3.7l-8.6-1.3c0.7-0.6,0.8-1.4,0.3-2.3c2-0.8,6-2.6,8.5-5.5   c4.7-5.5-3.1-9.4-3.1-9.4S119.3,22.4,116.3,24.7z" fill="#2D3134"/><path d="M88.9,126.5c-2.7,2.1-7.8,3.7-11.7,4.5c-0.5,0-0.6-1.5-2-2.2c-1.3-0.7-3.4-0.8-4.9-0.3l-2.4-0.4l0.8,1.2   c-0.8,0.8-0.6,1.8,0.7,2.4c1.4,0.7,4.4,0.8,4.3,1c-1.6,1.9-4.8,4.5-8.9,5.8c-4.6,1.5-12.6,2.4-12.6,2.4s7.9,3.9,18.8,1.6   c5.8-1.3,9.5-3.2,11.1-4.2c1.6,0.2,3.1,0.2,4.3-0.1l3,4.2l7.3-3.7l-8.6-1.3c0.7-0.6,0.8-1.4,0.3-2.3c2-0.8,6-2.6,8.5-5.5   c4.7-5.5-3.1-9.4-3.1-9.4S92,124.2,88.9,126.5z" fill="#2D3134"/><path d="M261.2,34.8c-2.7,2.1-7.8,3.7-11.7,4.5c-0.5,0-0.6-1.5-2-2.2c-1.3-0.7-3.4-0.8-4.9-0.3l-2.4-0.4l0.8,1.2   c-0.8,0.8-0.6,1.8,0.7,2.4c1.4,0.7,4.4,0.8,4.3,1c-1.6,1.9-4.8,4.5-8.9,5.8c-4.6,1.5-12.6,2.4-12.6,2.4s7.9,3.9,18.8,1.6   c5.8-1.3,9.5-3.2,11.1-4.2c1.6,0.2,3.1,0.2,4.3-0.1l3,4.2l7.3-3.7l-8.6-1.3c0.7-0.6,0.8-1.4,0.3-2.3c2-0.8,6-2.6,8.5-5.5   c4.7-5.5-3.1-9.4-3.1-9.4S264.2,32.5,261.2,34.8z" fill="#2D3134"/><path d="M78.4,203.3c-2.7,2.1-7.8,3.7-11.7,4.5c-0.5,0-0.6-1.5-2-2.2c-1.3-0.7-3.4-0.8-4.9-0.3l-2.4-0.4l0.8,1.2   c-0.8,0.8-0.6,1.8,0.7,2.4c1.4,0.7,4.4,0.8,4.3,1c-1.6,1.9-4.8,4.5-8.9,5.8c-4.6,1.5-12.6,2.4-12.6,2.4s7.9,3.9,18.8,1.6   c5.8-1.3,9.5-3.2,11.1-4.2c1.6,0.2,3.1,0.2,4.3-0.1l3,4.2l7.3-3.7l-8.6-1.3c0.7-0.6,0.8-1.4,0.3-2.3c2-0.8,6-2.6,8.5-5.5   c4.7-5.5-3.1-9.4-3.1-9.4S81.4,201,78.4,203.3z" fill="#2D3134"/><path d="M227.9,211.8c-2.7,2.1-7.8,3.7-11.7,4.5c-0.5,0-0.6-1.5-2-2.2c-1.3-0.7-3.4-0.8-4.9-0.3l-2.4-0.4l0.8,1.2   c-0.8,0.8-0.6,1.8,0.7,2.4c1.4,0.7,4.4,0.8,4.3,1c-1.6,1.9-4.8,4.5-8.9,5.8c-4.6,1.5-12.6,2.4-12.6,2.4s7.9,3.9,18.8,1.6   c5.8-1.3,9.5-3.2,11.1-4.2c1.6,0.2,3.1,0.2,4.3-0.1l3,4.2l7.3-3.7l-8.6-1.3c0.7-0.6,0.8-1.4,0.3-2.3c2-0.8,6-2.6,8.5-5.5   c4.7-5.5-3.1-9.4-3.1-9.4S230.9,209.5,227.9,211.8z" fill="#2D3134"/><path d="M372.8,174.6c-2.7,2.1-7.8,3.7-11.7,4.5c-0.5,0-0.6-1.5-2-2.2c-1.3-0.7-3.4-0.8-4.9-0.3l-2.4-0.4l0.8,1.2   c-0.8,0.8-0.6,1.8,0.7,2.4c1.4,0.7,4.4,0.8,4.3,1c-1.6,1.9-4.8,4.5-8.9,5.8c-4.6,1.5-12.6,2.4-12.6,2.4s7.9,3.9,18.8,1.6   c5.8-1.3,9.5-3.2,11.1-4.2c1.6,0.2,3.1,0.2,4.3-0.1l3,4.2l7.3-3.7l-8.6-1.3c0.7-0.6,0.8-1.4,0.3-2.3c2-0.8,6-2.6,8.5-5.5   c4.7-5.5-3.1-9.4-3.1-9.4S375.9,172.3,372.8,174.6z" fill="#2D3134"/><path d="M361.6,83.3c-2.7,2.1-7.8,3.7-11.7,4.5c-0.5,0-0.6-1.5-2-2.2c-1.3-0.7-3.4-0.8-4.9-0.3l-2.4-0.4l0.8,1.2   c-0.8,0.8-0.6,1.8,0.7,2.4c1.4,0.7,4.4,0.8,4.3,1c-1.6,1.9-4.8,4.5-8.9,5.8c-4.6,1.5-12.6,2.4-12.6,2.4s7.9,3.9,18.8,1.6   c5.8-1.3,9.5-3.2,11.1-4.2c1.6,0.2,3.1,0.2,4.3-0.1l3,4.2l7.3-3.7l-8.6-1.3c0.7-0.6,0.8-1.4,0.3-2.3c2-0.8,6-2.6,8.5-5.5   c4.7-5.5-3.1-9.4-3.1-9.4S364.6,81,361.6,83.3z" fill="#2D3134"/><path d="M262.7,129.6c-2.7,2.1-7.8,3.7-11.7,4.5c-0.5,0-0.6-1.5-2-2.2c-1.3-0.7-3.4-0.8-4.9-0.3l-2.4-0.4l0.8,1.2   c-0.8,0.8-0.6,1.8,0.7,2.4c1.4,0.7,4.4,0.8,4.3,1c-1.6,1.9-4.8,4.5-8.9,5.8c-4.6,1.5-12.6,2.4-12.6,2.4s7.9,3.9,18.8,1.6   c5.8-1.3,9.5-3.2,11.1-4.2c1.6,0.2,3.1,0.2,4.3-0.1l3,4.2l7.3-3.7l-8.6-1.3c0.7-0.6,0.8-1.4,0.3-2.3c2-0.8,6-2.6,8.5-5.5   c4.7-5.5-3.1-9.4-3.1-9.4S265.7,127.3,262.7,129.6z" fill="#2D3134"/><path d="M169,158.1c-2.7,2.1-7.8,3.7-11.7,4.5c-0.5,0-0.6-1.5-2-2.2c-1.3-0.7-3.4-0.8-4.9-0.3l-2.4-0.4l0.8,1.2   c-0.8,0.8-0.6,1.8,0.7,2.4c1.4,0.7,4.4,0.8,4.3,1c-1.6,1.9-4.8,4.5-8.9,5.8c-4.6,1.5-12.6,2.4-12.6,2.4s7.9,3.9,18.8,1.6   c5.8-1.3,9.5-3.2,11.1-4.2c1.6,0.2,3.1,0.2,4.3-0.1l3,4.2l7.3-3.7l-8.6-1.3c0.7-0.6,0.8-1.4,0.3-2.3c2-0.8,6-2.6,8.5-5.5   c4.7-5.5-3.1-9.4-3.1-9.4S172,155.8,169,158.1z" fill="#2D3134"/><path d="M196.3,78c-2.7,2.1-7.8,3.7-11.7,4.5c-0.5,0-0.6-1.5-2-2.2c-1.3-0.7-3.4-0.8-4.9-0.3l-2.4-0.4l0.8,1.2   c-0.8,0.8-0.6,1.8,0.7,2.4c1.4,0.7,4.4,0.8,4.3,1c-1.6,1.9-4.8,4.5-8.9,5.8c-4.6,1.5-12.6,2.4-12.6,2.4s7.9,3.9,18.8,1.6   c5.8-1.3,9.5-3.2,11.1-4.2c1.6,0.2,3.1,0.2,4.3-0.1l3,4.2l7.3-3.7l-8.6-1.3c0.7-0.6,0.8-1.4,0.3-2.3c2-0.8,6-2.6,8.5-5.5   c4.7-5.5-3.1-9.4-3.1-9.4S199.4,75.7,196.3,78z" fill="#2D3134"/></g></svg>